<svg width="15" height="12" viewBox="0 0 15 12" fill="none" xmlns="http://www.w3.org/2000/svg">
<path d="M12 0L9 2.96597H11.25V8.8979C11.25 9.29121 11.092 9.66841 10.8107 9.94653C10.5294 10.2246 10.1478 10.3809 9.75 10.3809C9.35217 10.3809 8.97064 10.2246 8.68934 9.94653C8.40804 9.66841 8.25 9.29121 8.25 8.8979V2.96597C8.25 2.17934 7.93393 1.42494 7.37132 0.868711C6.80871 0.312485 6.04565 0 5.25 0C4.45435 0 3.69129 0.312485 3.12868 0.868711C2.56607 1.42494 2.25 2.17934 2.25 2.96597V8.8979H0L3 11.8639L6 8.8979H3.75V2.96597C3.75 2.57265 3.90804 2.19545 4.18934 1.91734C4.47064 1.63923 4.85218 1.48298 5.25 1.48298C5.64782 1.48298 6.02936 1.63923 6.31066 1.91734C6.59196 2.19545 6.75 2.57265 6.75 2.96597V8.8979C6.75 9.68452 7.06607 10.4389 7.62868 10.9952C8.19129 11.5514 8.95435 11.8639 9.75 11.8639C10.5456 11.8639 11.3087 11.5514 11.8713 10.9952C12.4339 10.4389 12.75 9.68452 12.75 8.8979V2.96597H15L12 0Z" fill="white"/>
</svg>
